<svg xmlns="http://www.w3.org/2000/svg" viewBox="0 0 940 1438.3499755859375" width="940" height="1438.3499755859375"><style>:root{color-scheme:light;--background:#f5f2e8;--foreground:#273e43;--green:#246a4c;--blue:#078bb6;--yellow:#ba8d3e;--red:#c43c36;--orange:#b36d1c;--font-size-base:14px}body{margin:0;background:var(--background);color:var(--foreground);font:14px/1.5 system-ui,sans-serif}main{max-width:940px;margin:auto;padding:24px}h2{font-size:26px;font-weight:500}h3{font-size:19px;font-weight:500}.text-small{font-size:12px}a{color:#176583}.downloads{display:flex;gap:18px;flex-wrap:wrap;margin:18px 0}@media(max-width:460px){main{padding:14px}}
svg{font:14px system-ui,sans-serif}svg text{fill:var(--foreground)}

  #wc-single-cove-approval{color:var(--foreground);width:100%}
  section{margin-block:24px 36px}
  svg{display:block;width:100%;overflow:hidden}
  .wc-key{display:grid;grid-template-columns:repeat(2,minmax(0,1fr));gap:8px 18px;margin-block:12px}
  .wc-legend{display:flex;gap:10px 20px;flex-wrap:wrap;margin-block:16px}
  .wc-blue{color:var(--blue)}
  .wc-green{color:var(--green)}
  .wc-red{color:var(--red)}
  svg text{fill:var(--foreground);font:inherit}
  svg .halo{paint-order:stroke;stroke:var(--background);stroke-width:4;stroke-linejoin:round}
  svg .pin{fill:var(--background);stroke:var(--foreground);stroke-width:1.2}
  svg .water{fill:var(--blue);fill-opacity:.13}
  svg .land{fill:var(--green);fill-opacity:.19}
  svg .sand{fill:var(--yellow);fill-opacity:.34}
  svg .rock{fill:var(--foreground);fill-opacity:.25}
  svg .high{fill:var(--foreground);fill-opacity:.09}
  svg .coast{fill:none;stroke:var(--green);stroke-width:2.2}
  svg .trail{fill:none;stroke:var(--blue);stroke-width:3.2;stroke-linejoin:round;stroke-linecap:round}
  svg .cave{fill:none;stroke:var(--foreground);stroke-width:2;stroke-dasharray:5 4}
  svg .route{fill:none;stroke:var(--foreground);stroke-opacity:.6;stroke-width:2}
  svg .proposal{fill:none;stroke:var(--orange);stroke-width:1.5;stroke-dasharray:6 4}
  @media(max-width:460px){.wc-key{grid-template-columns:1fr}}
</style><defs><clipPath id="map-crop"><rect width="940" height="1232.3499755859375"/></clipPath></defs><rect width="100%" height="100%" fill="var(--background)"/><text x="18" y="26" style="font-size:21px;font-weight:500">01 · Peninsula top view</text><text x="18" y="52">WESTCOSE WORLD · PROPOSAL FOR APPROVAL · NOT IMPLEMENTED</text><g transform="translate(0 74)" clip-path="url(#map-crop)"><rect width="940" height="1232.3500000000001" class="water"></rect><path d="M35,-41h2v1h-2ZM33,-40h6v1h-6ZM32,-39h3v1h-3ZM39,-39h2v1h-2ZM31,-38h1v1h-1ZM39,-38h2v1h-2ZM30,-37h1v1h-1ZM40,-37h2v1h-2ZM29,-36h1v1h-1ZM41,-36h2v1h-2ZM-13,-35h4v1h-4ZM28,-35h1v1h-1ZM42,-35h2v1h-2ZM-16,-34h10v1h-10ZM19,-34h6v1h-6ZM42,-34h2v1h-2ZM-20,-33h17v1h-17ZM18,-33h8v1h-8ZM42,-33h2v1h-2ZM-33,-32h48v1h-48ZM16,-32h11v1h-11ZM43,-32h2v1h-2ZM-33,-31h59v1h-59ZM43,-31h2v1h-2ZM-33,-30h59v1h-59ZM43,-30h2v1h-2ZM-33,-29h59v1h-59ZM43,-29h2v1h-2ZM-33,-28h59v1h-59ZM43,-28h2v1h-2ZM-33,-27h59v1h-59ZM44,-27h1v1h-1ZM-33,-26h59v1h-59ZM44,-26h1v1h-1ZM-33,-25h57v1h-57ZM43,-25h2v1h-2ZM-33,-24h57v1h-57ZM43,-24h2v1h-2ZM-33,-23h57v1h-57ZM42,-23h2v1h-2ZM-33,-22h58v1h-58ZM42,-22h1v1h-1ZM-33,-21h58v1h-58ZM41,-21h1v1h-1ZM-34,-20h59v1h-59ZM-34,-19h59v1h-59ZM34,-19h2v1h-2ZM40,-19h1v1h-1ZM-34,-18h59v1h-59ZM34,-18h3v1h-3ZM38,-18h2v1h-2ZM-34,-17h59v1h-59ZM34,-17h6v1h-6ZM-34,-16h3v1h-3ZM-26,-16h51v1h-51ZM34,-16h6v1h-6ZM-35,-15h2v1h-2ZM-25,-15h50v1h-50ZM34,-15h6v1h-6ZM-35,-14h1v1h-1ZM-24,-14h49v1h-49ZM34,-14h6v1h-6ZM-36,-13h2v1h-2ZM-24,-13h49v1h-49ZM34,-13h7v1h-7ZM-36,-12h1v1h-1ZM-23,-12h48v1h-48ZM34,-12h8v1h-8ZM-37,-11h1v1h-1ZM-22,-11h47v1h-47ZM34,-11h10v1h-10ZM-37,-10h1v1h-1ZM-22,-10h47v1h-47ZM34,-10h11v1h-11ZM-38,-9h2v1h-2ZM-22,-9h47v1h-47ZM34,-9h11v1h-11ZM-38,-8h1v1h-1ZM-21,-8h46v1h-46ZM34,-8h12v1h-12ZM-38,-7h1v1h-1ZM-21,-7h46v1h-46ZM34,-7h12v1h-12ZM-38,-6h1v1h-1ZM-21,-6h46v1h-46ZM34,-6h12v1h-12ZM-39,-5h1v1h-1ZM-20,-5h45v1h-45ZM34,-5h12v1h-12ZM-39,-4h1v1h-1ZM-20,-4h45v1h-45ZM37,-4h8v1h-8ZM-39,-3h1v1h-1ZM-24,-3h50v1h-50ZM37,-3h8v1h-8ZM-39,-2h1v1h-1ZM-25,-2h51v1h-51ZM36,-2h7v1h-7ZM-25,-1h51v1h-51ZM34,-1h7v1h-7ZM-40,0h1v1h-1ZM-25,0h50v1h-50ZM34,0h5v1h-5ZM-40,1h1v1h-1ZM-21,1h46v1h-46ZM34,1h2v1h-2ZM-40,2h1v1h-1ZM-21,2h46v1h-46ZM33,2h2v1h-2ZM-40,3h1v1h-1ZM-19,3h44v1h-44ZM33,3h2v1h-2ZM-40,4h1v1h-1ZM-19,4h44v1h-44ZM32,4h2v1h-2ZM-40,5h1v1h-1ZM-19,5h44v1h-44ZM32,5h2v1h-2ZM-40,6h1v1h-1ZM-19,6h44v1h-44ZM32,6h2v1h-2ZM-40,7h1v1h-1ZM-19,7h44v1h-44ZM31,7h2v1h-2ZM-40,8h1v1h-1ZM-19,8h44v1h-44ZM31,8h2v1h-2ZM-40,9h1v1h-1ZM-19,9h44v1h-44ZM30,9h2v1h-2ZM-40,10h1v1h-1ZM-19,10h44v1h-44ZM29,10h3v1h-3ZM-40,11h1v1h-1ZM-19,11h44v1h-44ZM27,11h1v1h-1ZM29,11h2v1h-2ZM-40,12h1v1h-1ZM-19,12h44v1h-44ZM26,12h5v1h-5ZM-40,13h1v1h-1ZM-19,13h44v1h-44ZM26,13h5v1h-5ZM-40,14h1v1h-1ZM-19,14h44v1h-44ZM26,14h5v1h-5ZM-40,15h1v1h-1ZM-19,15h67v1h-67ZM-40,16h1v1h-1ZM-19,16h67v1h-67ZM-40,17h1v1h-1ZM-19,17h67v1h-67ZM-40,18h1v1h-1ZM-19,18h47v1h-47ZM38,18h10v1h-10ZM-40,19h1v1h-1ZM-19,19h48v1h-48ZM37,19h11v1h-11ZM-19,20h49v1h-49ZM36,20h12v1h-12ZM-39,21h1v1h-1ZM-20,21h51v1h-51ZM35,21h4v1h-4ZM-39,22h1v1h-1ZM-20,22h57v1h-57ZM-39,23h1v1h-1ZM-20,23h56v1h-56ZM-39,24h1v1h-1ZM-20,24h56v1h-56ZM-38,25h1v1h-1ZM-21,25h57v1h-57ZM-38,26h1v1h-1ZM-21,26h57v1h-57ZM-38,27h1v1h-1ZM-21,27h57v1h-57ZM-38,28h2v1h-2ZM-22,28h58v1h-58ZM-37,29h1v1h-1ZM-22,29h58v1h-58ZM-37,30h1v1h-1ZM-22,30h58v1h-58ZM-36,31h1v1h-1ZM-23,31h59v1h-59ZM-36,32h2v1h-2ZM-24,32h60v1h-60ZM-36,33h2v1h-2ZM-24,33h61v1h-61ZM-36,34h3v1h-3ZM-25,34h62v1h-62ZM-36,35h5v1h-5ZM-27,35h28v1h-28ZM9,35h28v1h-28ZM-36,36h3v1h-3ZM34,36h3v1h-3ZM-36,37h3v1h-3ZM35,37h2v1h-2ZM-36,38h3v1h-3ZM35,38h2v1h-2ZM-36,39h3v1h-3ZM35,39h2v1h-2ZM-35,40h2v1h-2ZM35,40h2v1h-2ZM-35,41h2v1h-2ZM35,41h2v1h-2ZM-35,42h2v1h-2ZM35,42h2v1h-2ZM-35,43h2v1h-2ZM35,43h2v1h-2ZM-35,44h2v1h-2ZM35,44h1v1h-1ZM-35,45h2v1h-2ZM34,45h2v1h-2ZM-34,46h2v1h-2ZM34,46h2v1h-2ZM-34,47h2v1h-2ZM34,47h2v1h-2ZM-34,48h2v1h-2ZM34,48h1v1h-1ZM-33,49h1v1h-1ZM33,49h2v1h-2ZM-33,50h2v1h-2ZM33,50h2v1h-2ZM-33,51h2v1h-2ZM33,51h1v1h-1ZM-33,52h2v1h-2ZM32,52h2v1h-2ZM-32,53h1v1h-1ZM32,53h2v1h-2ZM-32,54h1v1h-1ZM32,54h1v1h-1ZM-32,55h1v1h-1ZM32,55h1v1h-1ZM-32,56h2v1h-2ZM31,56h2v1h-2ZM-32,57h2v1h-2ZM31,57h2v1h-2ZM-32,58h2v1h-2ZM31,58h2v1h-2ZM-32,59h2v1h-2ZM31,59h1v1h-1ZM-32,60h1v1h-1ZM31,60h1v1h-1ZM-32,61h1v1h-1ZM31,61h1v1h-1ZM-32,62h1v1h-1ZM31,62h1v1h-1ZM-32,63h1v1h-1ZM31,63h1v1h-1ZM-33,64h2v1h-2ZM31,64h1v1h-1ZM-33,65h1v1h-1ZM31,65h2v1h-2ZM-33,66h1v1h-1ZM31,66h2v1h-2ZM-34,67h2v1h-2ZM32,67h1v1h-1ZM-34,68h1v1h-1ZM32,68h1v1h-1ZM-34,69h1v1h-1ZM32,69h1v1h-1ZM-35,70h2v1h-2ZM32,70h2v1h-2ZM-35,71h1v1h-1ZM33,71h1v1h-1ZM-35,72h1v1h-1ZM33,72h1v1h-1ZM-36,73h1v1h-1ZM33,73h1v1h-1ZM-36,74h1v1h-1ZM33,74h1v1h-1ZM-36,75h1v1h-1ZM33,75h2v1h-2ZM-37,76h1v1h-1ZM34,76h1v1h-1ZM-37,77h1v1h-1ZM34,77h1v1h-1ZM-37,78h1v1h-1ZM34,78h1v1h-1ZM-37,79h1v1h-1ZM34,79h1v1h-1ZM-38,80h2v1h-2ZM34,80h1v1h-1ZM-38,81h1v1h-1ZM34,81h1v1h-1ZM-38,82h1v1h-1ZM34,82h1v1h-1ZM-38,83h1v1h-1ZM34,83h1v1h-1ZM-38,84h1v1h-1ZM34,84h1v1h-1ZM-38,85h1v1h-1ZM34,85h1v1h-1ZM-38,86h1v1h-1ZM34,86h1v1h-1ZM-38,87h1v1h-1ZM34,87h1v1h-1ZM-38,88h1v1h-1ZM34,88h1v1h-1ZM-38,89h1v1h-1ZM34,89h1v1h-1ZM-38,90h1v1h-1ZM34,90h1v1h-1ZM-38,91h1v1h-1ZM34,91h1v1h-1ZM-38,92h1v1h-1ZM34,92h1v1h-1ZM-38,93h1v1h-1ZM34,93h1v1h-1ZM-38,94h1v1h-1ZM34,94h1v1h-1ZM-38,95h1v1h-1ZM34,95h1v1h-1ZM-38,96h1v1h-1ZM34,96h1v1h-1ZM-38,97h1v1h-1ZM34,97h1v1h-1ZM-38,98h1v1h-1ZM34,98h1v1h-1ZM-38,99h1v1h-1ZM34,99h1v1h-1ZM-38,100h1v1h-1ZM34,100h1v1h-1ZM-38,101h1v1h-1ZM34,101h1v1h-1ZM-39,102h1v1h-1ZM35,102h1v1h-1ZM-39,103h1v1h-1ZM35,103h1v1h-1ZM-39,104h1v1h-1ZM35,104h1v1h-1ZM-39,105h1v1h-1ZM35,105h1v1h-1ZM-39,106h1v1h-1ZM36,106h1v1h-1ZM-39,107h1v1h-1ZM36,107h1v1h-1ZM-39,108h1v1h-1ZM36,108h1v1h-1ZM-39,109h1v1h-1ZM36,109h1v1h-1ZM-39,110h1v1h-1ZM36,110h1v1h-1ZM-39,111h1v1h-1ZM36,111h1v1h-1ZM-39,112h1v1h-1ZM36,112h1v1h-1ZM-38,113h1v1h-1ZM35,113h1v1h-1ZM-38,114h1v1h-1ZM35,114h1v1h-1ZM-37,115h1v1h-1ZM35,115h1v1h-1ZM-37,116h1v1h-1ZM35,116h1v1h-1ZM-36,117h1v1h-1ZM34,117h1v1h-1ZM-36,118h1v1h-1ZM34,118h1v1h-1ZM-35,119h1v1h-1ZM33,119h1v1h-1ZM-35,120h1v1h-1ZM33,120h1v1h-1ZM-34,121h1v1h-1ZM33,121h1v1h-1ZM-34,122h1v1h-1ZM32,122h1v1h-1ZM-33,123h1v1h-1ZM32,123h1v1h-1ZM-33,124h1v1h-1ZM31,124h1v1h-1ZM-32,125h1v1h-1ZM31,125h1v1h-1ZM-32,126h1v1h-1ZM31,126h1v1h-1ZM-31,127h1v1h-1ZM31,127h1v1h-1ZM-31,128h1v1h-1ZM30,128h1v1h-1ZM-31,129h1v1h-1ZM30,129h1v1h-1ZM-30,130h1v1h-1ZM30,130h1v1h-1ZM-30,131h1v1h-1ZM30,131h1v1h-1ZM-30,132h1v1h-1ZM30,132h1v1h-1ZM-30,133h1v1h-1ZM30,133h1v1h-1ZM-29,134h1v1h-1ZM30,134h1v1h-1ZM-29,135h1v1h-1ZM30,135h1v1h-1ZM-29,136h1v1h-1ZM30,136h1v1h-1ZM-29,137h1v1h-1ZM30,137h1v1h-1ZM-29,138h1v1h-1ZM30,138h1v1h-1ZM-29,139h1v1h-1ZM30,139h1v1h-1ZM-29,140h1v1h-1ZM30,140h1v1h-1ZM-29,141h1v1h-1ZM30,141h1v1h-1ZM-29,142h1v1h-1ZM30,142h1v1h-1ZM-29,143h1v1h-1ZM30,143h1v1h-1ZM-29,144h1v1h-1ZM30,144h1v1h-1ZM-29,145h1v1h-1ZM30,145h1v1h-1ZM-29,146h1v1h-1ZM30,146h1v1h-1ZM-29,147h1v1h-1ZM30,147h1v1h-1ZM30,148h1v1h-1ZM30,149h1v1h-1ZM30,150h1v1h-1ZM-28,151h1v1h-1ZM30,151h1v1h-1ZM-28,152h1v1h-1ZM30,152h1v1h-1ZM-25,153h2v1h-2ZM23,153h2v1h-2ZM-24,154h1v1h-1ZM23,154h1v1h-1ZM-24,155h2v1h-2ZM22,155h2v1h-2ZM-23,156h2v1h-2ZM21,156h2v1h-2ZM-22,157h2v1h-2ZM20,157h2v1h-2ZM-21,158h3v1h-3ZM18,158h3v1h-3ZM-20,159h4v1h-4ZM16,159h4v1h-4ZM-18,160h5v1h-5ZM13,160h5v1h-5ZM-14,161h5v1h-5ZM9,161h5v1h-5ZM-9,162h7v1h-7ZM2,162h7v1h-7Z" transform="translate(-250 513.95) scale(22.5 -14.175)" class="sand"></path><path d="M35,-39h4v1h-4ZM32,-38h1v1h-1ZM39,-37h1v1h-1ZM40,-36h1v1h-1ZM41,-35h1v1h-1ZM28,-34h1v1h-1ZM27,-33h1v1h-1ZM42,-32h1v1h-1ZM26,-31h1v1h-1ZM42,-31h1v1h-1ZM26,-30h1v1h-1ZM42,-30h1v1h-1ZM26,-29h1v1h-1ZM26,-28h1v1h-1ZM26,-27h1v1h-1ZM43,-27h1v1h-1ZM26,-26h2v1h-2ZM43,-26h1v1h-1ZM24,-25h5v1h-5ZM24,-24h5v1h-5ZM42,-24h1v1h-1ZM24,-23h5v1h-5ZM25,-22h3v1h-3ZM41,-22h1v1h-1ZM25,-21h3v1h-3ZM33,-21h1v1h-1ZM25,-20h3v1h-3ZM33,-20h2v1h-2ZM40,-20h1v1h-1ZM25,-19h3v1h-3ZM33,-19h1v1h-1ZM36,-19h1v1h-1ZM38,-19h2v1h-2ZM25,-18h3v1h-3ZM29,-18h1v1h-1ZM33,-18h1v1h-1ZM37,-18h1v1h-1ZM25,-17h6v1h-6ZM33,-17h1v1h-1ZM-31,-16h5v1h-5ZM25,-16h7v1h-7ZM33,-16h1v1h-1ZM-33,-15h8v1h-8ZM25,-15h9v1h-9ZM-34,-14h10v1h-10ZM25,-14h9v1h-9ZM-34,-13h10v1h-10ZM25,-13h9v1h-9ZM-35,-12h12v1h-12ZM25,-12h9v1h-9ZM-36,-11h14v1h-14ZM25,-11h9v1h-9ZM-36,-10h14v1h-14ZM25,-10h9v1h-9ZM-36,-9h14v1h-14ZM25,-9h9v1h-9ZM-37,-8h16v1h-16ZM25,-8h9v1h-9ZM-37,-7h16v1h-16ZM25,-7h9v1h-9ZM-37,-6h16v1h-16ZM25,-6h9v1h-9ZM-38,-5h18v1h-18ZM25,-5h9v1h-9ZM-38,-4h18v1h-18ZM25,-4h12v1h-12ZM-38,-3h14v1h-14ZM26,-3h11v1h-11ZM-38,-2h13v1h-13ZM26,-2h10v1h-10ZM-39,-1h14v1h-14ZM26,-1h8v1h-8ZM-39,0h14v1h-14ZM25,0h9v1h-9ZM-39,1h18v1h-18ZM25,1h9v1h-9ZM-39,2h18v1h-18ZM25,2h8v1h-8ZM-39,3h20v1h-20ZM25,3h8v1h-8ZM-39,4h20v1h-20ZM25,4h7v1h-7ZM-39,5h20v1h-20ZM25,5h7v1h-7ZM-39,6h20v1h-20ZM25,6h7v1h-7ZM-39,7h20v1h-20ZM25,7h6v1h-6ZM-39,8h20v1h-20ZM25,8h6v1h-6ZM-39,9h20v1h-20ZM25,9h5v1h-5ZM-39,10h7v1h-7ZM-31,10h12v1h-12ZM25,10h4v1h-4ZM-39,11h20v1h-20ZM25,11h2v1h-2ZM28,11h1v1h-1ZM-39,12h16v1h-16ZM-21,12h2v1h-2ZM25,12h1v1h-1ZM-39,13h16v1h-16ZM-21,13h2v1h-2ZM25,13h1v1h-1ZM-39,14h16v1h-16ZM-21,14h2v1h-2ZM25,14h1v1h-1ZM-39,15h16v1h-16ZM-21,15h2v1h-2ZM-39,16h16v1h-16ZM-21,16h2v1h-2ZM-39,17h16v1h-16ZM-21,17h2v1h-2ZM-39,18h20v1h-20ZM28,18h10v1h-10ZM-39,19h20v1h-20ZM29,19h8v1h-8ZM-39,20h11v1h-11ZM-24,20h5v1h-5ZM30,20h6v1h-6ZM-38,21h18v1h-18ZM31,21h4v1h-4ZM-38,22h18v1h-18ZM-38,23h18v1h-18ZM-38,24h18v1h-18ZM-37,25h16v1h-16ZM-37,26h16v1h-16ZM-37,27h16v1h-16ZM-36,28h14v1h-14ZM-36,29h14v1h-14ZM-36,30h14v1h-14ZM-35,31h12v1h-12ZM-34,32h10v1h-10ZM-34,33h10v1h-10ZM-33,34h8v1h-8ZM-31,35h4v1h-4ZM1,35h8v1h-8ZM-33,36h67v1h-67ZM-33,37h68v1h-68ZM-33,38h68v1h-68ZM-33,39h68v1h-68ZM-33,40h68v1h-68ZM-33,41h68v1h-68ZM-33,42h68v1h-68ZM-33,43h68v1h-68ZM-33,44h68v1h-68ZM-33,45h67v1h-67ZM-32,46h66v1h-66ZM-32,47h66v1h-66ZM-32,48h66v1h-66ZM-32,49h65v1h-65ZM-31,50h64v1h-64ZM-31,51h64v1h-64ZM-31,52h63v1h-63ZM-31,53h63v1h-63ZM-31,54h63v1h-63ZM-31,55h63v1h-63ZM-30,56h61v1h-61ZM-30,57h61v1h-61ZM-30,58h61v1h-61ZM-30,59h61v1h-61ZM-31,60h62v1h-62ZM-31,61h62v1h-62ZM-31,62h62v1h-62ZM-31,63h62v1h-62ZM-31,64h62v1h-62ZM-32,65h63v1h-63ZM-32,66h63v1h-63ZM-32,67h64v1h-64ZM-33,68h65v1h-65ZM-33,69h65v1h-65ZM-33,70h65v1h-65ZM-34,71h67v1h-67ZM-34,72h67v1h-67ZM-35,73h68v1h-68ZM-35,74h68v1h-68ZM-35,75h68v1h-68ZM-36,76h70v1h-70ZM-36,77h70v1h-70ZM-36,78h70v1h-70ZM-36,79h70v1h-70ZM-36,80h70v1h-70ZM-37,81h71v1h-71ZM-37,82h71v1h-71ZM-37,83h71v1h-71ZM-37,84h71v1h-71ZM-37,85h71v1h-71ZM-37,86h71v1h-71ZM-37,87h71v1h-71ZM-37,88h71v1h-71ZM-37,89h71v1h-71ZM-37,90h71v1h-71ZM-37,91h71v1h-71ZM-37,92h71v1h-71ZM-37,93h71v1h-71ZM-37,94h71v1h-71ZM-37,95h71v1h-71ZM-37,96h71v1h-71ZM-37,97h71v1h-71ZM-37,98h71v1h-71ZM-37,99h71v1h-71ZM-37,100h71v1h-71ZM-37,101h71v1h-71ZM-38,102h73v1h-73ZM-38,103h73v1h-73ZM-38,104h73v1h-73ZM-38,105h73v1h-73ZM-38,106h74v1h-74ZM-38,107h74v1h-74ZM-38,108h74v1h-74ZM-38,109h74v1h-74ZM-38,110h74v1h-74ZM-38,111h74v1h-74ZM-38,112h74v1h-74ZM-37,113h72v1h-72ZM-37,114h72v1h-72ZM-36,115h71v1h-71ZM-36,116h71v1h-71ZM-35,117h69v1h-69ZM-35,118h69v1h-69ZM-34,119h67v1h-67ZM-34,120h28v1h-28ZM-4,120h37v1h-37ZM-33,121h27v1h-27ZM-4,121h37v1h-37ZM-33,122h26v1h-26ZM-3,122h35v1h-35ZM-32,123h20v1h-20ZM-10,123h2v1h-2ZM-2,123h11v1h-11ZM11,123h21v1h-21ZM-32,124h20v1h-20ZM-10,124h2v1h-2ZM-2,124h11v1h-11ZM11,124h20v1h-20ZM-31,125h18v1h-18ZM-1,125h9v1h-9ZM12,125h19v1h-19ZM-31,126h17v1h-17ZM-1,126h9v1h-9ZM12,126h19v1h-19ZM-30,127h16v1h-16ZM3,127h4v1h-4ZM13,127h18v1h-18ZM-30,128h15v1h-15ZM14,128h16v1h-16ZM-30,129h14v1h-14ZM14,129h16v1h-16ZM-29,130h13v1h-13ZM15,130h15v1h-15ZM-29,131h12v1h-12ZM17,131h13v1h-13ZM-29,132h11v1h-11ZM19,132h11v1h-11ZM-29,133h10v1h-10ZM20,133h10v1h-10ZM-28,134h7v1h-7ZM21,134h9v1h-9ZM-28,135h6v1h-6ZM22,135h8v1h-8ZM-28,136h5v1h-5ZM22,136h8v1h-8ZM-28,137h5v1h-5ZM23,137h7v1h-7ZM-28,138h4v1h-4ZM23,138h7v1h-7ZM-28,139h3v1h-3ZM24,139h6v1h-6ZM-28,140h3v1h-3ZM24,140h6v1h-6ZM-28,141h3v1h-3ZM24,141h6v1h-6ZM-28,142h3v1h-3ZM24,142h6v1h-6ZM-28,143h3v1h-3ZM25,143h5v1h-5ZM-28,144h3v1h-3ZM25,144h5v1h-5ZM-28,145h2v1h-2ZM25,145h5v1h-5ZM-28,146h2v1h-2ZM26,146h4v1h-4ZM-28,147h2v1h-2ZM26,147h4v1h-4ZM-28,148h2v1h-2ZM26,148h4v1h-4ZM-28,149h2v1h-2ZM26,149h4v1h-4ZM-28,150h2v1h-2ZM26,150h4v1h-4ZM-27,151h1v1h-1ZM27,151h3v1h-3ZM-27,152h1v1h-1ZM27,152h3v1h-3ZM-23,153h2v1h-2ZM21,153h2v1h-2ZM-23,154h3v1h-3ZM20,154h3v1h-3ZM-22,155h3v1h-3ZM19,155h3v1h-3ZM-21,156h4v1h-4ZM17,156h4v1h-4ZM-20,157h5v1h-5ZM15,157h5v1h-5ZM-18,158h5v1h-5ZM13,158h5v1h-5ZM-16,159h7v1h-7ZM9,159h7v1h-7ZM-13,160h8v1h-8ZM5,160h8v1h-8ZM-9,161h18v1h-18ZM-2,162h4v1h-4Z" transform="translate(-250 513.95) scale(22.5 -14.175)" class="land"></path><path d="M33,-38h6v1h-6ZM31,-37h8v1h-8ZM30,-36h10v1h-10ZM29,-35h12v1h-12ZM29,-34h13v1h-13ZM28,-33h14v1h-14ZM27,-32h15v1h-15ZM27,-31h15v1h-15ZM27,-30h15v1h-15ZM27,-29h16v1h-16ZM27,-28h16v1h-16ZM27,-27h16v1h-16ZM28,-26h15v1h-15ZM29,-25h14v1h-14ZM29,-24h13v1h-13ZM29,-23h13v1h-13ZM28,-22h13v1h-13ZM28,-21h5v1h-5ZM34,-21h7v1h-7ZM28,-20h5v1h-5ZM35,-20h5v1h-5ZM28,-19h5v1h-5ZM37,-19h1v1h-1ZM28,-18h1v1h-1ZM30,-18h3v1h-3ZM31,-17h2v1h-2ZM32,-16h1v1h-1ZM-32,10h1v1h-1ZM-23,12h2v1h-2ZM-23,13h2v1h-2ZM-23,14h2v1h-2ZM-23,15h2v1h-2ZM-23,16h2v1h-2ZM-23,17h2v1h-2ZM-28,20h4v1h-4ZM-6,120h2v1h-2ZM-6,121h2v1h-2ZM-7,122h4v1h-4ZM-12,123h2v1h-2ZM-8,123h6v1h-6ZM9,123h2v1h-2ZM-12,124h2v1h-2ZM-8,124h6v1h-6ZM9,124h2v1h-2ZM-13,125h12v1h-12ZM8,125h4v1h-4ZM-14,126h13v1h-13ZM8,126h4v1h-4ZM-14,127h17v1h-17ZM7,127h6v1h-6ZM-15,128h3v1h-3ZM-10,128h4v1h-4ZM-4,128h18v1h-18ZM-16,129h4v1h-4ZM-10,129h3v1h-3ZM-3,129h12v1h-12ZM11,129h3v1h-3ZM-16,130h3v1h-3ZM-9,130h2v1h-2ZM-3,130h11v1h-11ZM12,130h3v1h-3ZM-17,131h3v1h-3ZM-2,131h10v1h-10ZM12,131h5v1h-5ZM-18,132h4v1h-4ZM-2,132h9v1h-9ZM13,132h6v1h-6ZM-19,133h4v1h-4ZM-1,133h8v1h-8ZM13,133h7v1h-7ZM-21,134h5v1h-5ZM-1,134h7v1h-7ZM14,134h7v1h-7ZM-22,135h6v1h-6ZM0,135h5v1h-5ZM15,135h7v1h-7ZM-23,136h6v1h-6ZM0,136h5v1h-5ZM15,136h7v1h-7ZM-23,137h5v1h-5ZM-1,137h5v1h-5ZM16,137h7v1h-7ZM-24,138h6v1h-6ZM2,138h2v1h-2ZM16,138h7v1h-7ZM-25,139h6v1h-6ZM17,139h7v1h-7ZM-25,140h5v1h-5ZM18,140h6v1h-6ZM-25,141h5v1h-5ZM18,141h6v1h-6ZM-25,142h4v1h-4ZM19,142h5v1h-5ZM-25,143h3v1h-3ZM19,143h6v1h-6ZM-25,144h3v1h-3ZM20,144h5v1h-5ZM-26,145h5v1h-5ZM21,145h4v1h-4ZM-26,146h6v1h-6ZM21,146h5v1h-5ZM-26,147h6v1h-6ZM21,147h5v1h-5ZM-26,148h7v1h-7ZM21,148h5v1h-5ZM-26,149h7v1h-7ZM20,149h6v1h-6ZM-26,150h7v1h-7ZM19,150h7v1h-7ZM-26,151h6v1h-6ZM20,151h7v1h-7ZM-26,152h6v1h-6ZM20,152h7v1h-7ZM-21,153h5v1h-5ZM16,153h5v1h-5ZM-20,154h5v1h-5ZM15,154h5v1h-5ZM-19,155h6v1h-6ZM13,155h6v1h-6ZM-17,156h7v1h-7ZM10,156h7v1h-7ZM-15,157h8v1h-8ZM7,157h8v1h-8ZM-13,158h10v1h-10ZM3,158h10v1h-10ZM-9,159h18v1h-18ZM-5,160h10v1h-10Z" transform="translate(-250 513.95) scale(22.5 -14.175)" class="rock"></path><path d="M-12,128h2v1h-2ZM-6,128h2v1h-2ZM-12,129h2v1h-2ZM-7,129h4v1h-4ZM9,129h2v1h-2ZM-13,130h4v1h-4ZM-7,130h4v1h-4ZM8,130h4v1h-4ZM-14,131h12v1h-12ZM8,131h4v1h-4ZM-14,132h12v1h-12ZM7,132h6v1h-6ZM-15,133h14v1h-14ZM7,133h6v1h-6ZM-16,134h15v1h-15ZM6,134h8v1h-8ZM-16,135h16v1h-16ZM5,135h10v1h-10ZM-17,136h17v1h-17ZM5,136h10v1h-10ZM-18,137h17v1h-17ZM4,137h12v1h-12ZM-18,138h20v1h-20ZM4,138h12v1h-12ZM-19,139h36v1h-36ZM-20,140h38v1h-38ZM-20,141h38v1h-38ZM-21,142h40v1h-40ZM-22,143h41v1h-41ZM-22,144h42v1h-42ZM-21,145h42v1h-42ZM-20,146h41v1h-41ZM-20,147h41v1h-41ZM-19,148h40v1h-40ZM-19,149h39v1h-39ZM-19,150h38v1h-38ZM-20,151h40v1h-40ZM-20,152h40v1h-40ZM-16,153h32v1h-32ZM-15,154h30v1h-30ZM-13,155h26v1h-26ZM-10,156h20v1h-20ZM-7,157h14v1h-14ZM-3,158h6v1h-6Z" transform="translate(-250 513.95) scale(22.5 -14.175)" class="high"></path><path d="M290 88.7L897.5 88.7L897.5 1151.83L290 1151.83Z" fill="var(--background)"></path><path class="water" d="M290 88.7L897.5 88.7L897.5 1151.83L290 1151.83Z"></path><path class="land" d="M290 88.7C338.75 -57.77 522.5 81.61 582.5 88.7C642.5 95.79 638.75 117.05 650 131.23C661.25 145.4 661.25 159.57 650 173.75C638.75 187.93 601.25 197.38 582.5 216.28C563.75 235.18 548.75 261.16 537.5 287.15C526.25 313.14 518.75 343.85 515 372.2C511.25 400.55 511.25 426.54 515 457.25C518.75 487.96 526.25 521.04 537.5 556.48C548.75 591.91 560 632.08 582.5 669.88C605 707.68 646.25 752.56 672.5 783.28C698.75 813.99 725 830.53 740 854.15C755 877.78 766.25 901.4 762.5 925.03C758.75 948.65 736.25 974.64 717.5 995.9C698.75 1017.16 676.25 1038.43 650 1052.6C623.75 1066.77 590 1080.95 560 1080.95C530 1080.95 496.25 1064.41 470 1052.6C443.75 1040.79 421.25 1026.61 402.5 1010.08C383.75 993.54 376.25 960.46 357.5 953.38C338.75 946.29 301.25 1111.66 290 967.55C278.75 823.44 241.25 235.18 290 88.7Z"></path><path class="sand" d="M560 145.4C533.75 152.49 515 180.84 492.5 202.1C470 223.36 440 244.63 425 272.98C410 301.33 404.38 339.13 402.5 372.2C400.63 405.28 406.25 435.99 413.75 471.43C421.25 506.86 434.38 547.03 447.5 584.83C460.63 622.63 473.75 662.79 492.5 698.23C511.25 733.66 541.25 773.83 560 797.45C578.75 821.08 586.25 839.98 605 839.98C623.75 839.98 672.5 818.71 672.5 797.45C672.5 776.19 623.75 743.11 605 712.4C586.25 681.69 575 650.98 560 613.18C545 575.38 522.5 525.76 515 485.6C507.5 445.44 511.25 407.64 515 372.2C518.75 336.76 526.25 301.33 537.5 272.98C548.75 244.63 563.75 221 582.5 202.1C601.25 183.2 653.75 169.02 650 159.57C646.25 150.13 586.25 138.31 560 145.4Z"></path><path class="rock" d="M413.75 910.85C417.5 891.95 430.63 867.14 447.5 854.15C464.38 841.16 488.75 832.89 515 832.89C541.25 832.89 578.75 841.16 605 854.15C631.25 867.14 665 889.59 672.5 910.85C680 932.11 665 962.83 650 981.73C635 1000.63 608.75 1019.53 582.5 1024.25C556.25 1028.97 518.75 1019.53 492.5 1010.08C466.25 1000.63 438.13 984.09 425 967.55C411.88 951.01 410 929.75 413.75 910.85Z"></path><path class="coast" d="M582.5 88.7C593.75 95.79 638.75 117.05 650 131.23C661.25 145.4 661.25 159.57 650 173.75C638.75 187.93 601.25 197.38 582.5 216.28C563.75 235.18 548.75 261.16 537.5 287.15C526.25 313.14 518.75 343.85 515 372.2C511.25 400.55 511.25 426.54 515 457.25C518.75 487.96 526.25 521.04 537.5 556.48C548.75 591.91 560 632.08 582.5 669.88C605 707.68 646.25 752.56 672.5 783.28C698.75 813.99 725 830.53 740 854.15C755 877.78 766.25 901.4 762.5 925.03C758.75 948.65 736.25 974.64 717.5 995.9C698.75 1017.16 676.25 1038.43 650 1052.6C623.75 1066.77 590 1080.95 560 1080.95C530 1080.95 496.25 1064.41 470 1052.6C443.75 1040.79 421.25 1026.61 402.5 1010.08C383.75 993.54 376.25 960.46 357.5 953.38C338.75 946.29 301.25 965.19 290 967.55"></path><path class="route" d="M560 117.05C545 128.86 498.13 164.3 470 187.93C441.88 211.55 407 232.81 391.25 258.8C375.5 284.79 375.5 313.14 375.5 343.85C375.5 374.56 383.75 407.64 391.25 443.08C398.75 478.51 407.38 516.31 420.5 556.48C433.63 596.64 450.5 643.89 470 684.05C489.5 724.21 515 769.1 537.5 797.45C560 825.8 593.75 844.7 605 854.15"></path><path d="M560 117.05L587 126.97" stroke="var(--foreground)" stroke-opacity=".5"></path><path d="M470 187.93L497 197.85" stroke="var(--foreground)" stroke-opacity=".5"></path><path d="M391.25 258.8L418.25 268.72" stroke="var(--foreground)" stroke-opacity=".5"></path><path d="M375.5 343.85L402.5 353.77" stroke="var(--foreground)" stroke-opacity=".5"></path><path d="M391.25 443.08L418.25 453" stroke="var(--foreground)" stroke-opacity=".5"></path><path d="M420.5 556.48L447.5 566.4" stroke="var(--foreground)" stroke-opacity=".5"></path><path d="M470 684.05L497 693.97" stroke="var(--foreground)" stroke-opacity=".5"></path><path d="M537.5 797.45L564.5 807.37" stroke="var(--foreground)" stroke-opacity=".5"></path><path class="trail" d="M200 457.25C211.25 466.7 241.25 497.41 267.5 513.95C293.75 530.49 335 532.85 357.5 556.48C380 580.1 391.25 622.63 402.5 655.7C413.75 688.78 417.5 724.21 425 754.93C432.5 785.64 436.25 813.99 447.5 839.98C458.75 865.96 484.25 889.59 492.5 910.85C500.75 932.11 496.25 958.1 497 967.55"></path><path class="cave" d="M380 925.03C391.25 928.57 425 939.2 447.5 946.29C470 953.38 496.25 964.01 515 967.55C533.75 971.09 548.75 972.28 560 967.55C571.25 962.83 575 953.38 582.5 939.2C590 925.03 601.25 901.4 605 882.5C608.75 863.6 605 839.98 605 825.8C605 811.63 605 802.18 605 797.45"></path><circle cx="560" cy="967.5500000000001" r="54" fill="var(--background)" stroke="var(--red)" stroke-width="2"></circle><path d="M515 485.6C537.5 471.43 608.75 487.96 650 499.78C691.25 511.59 747.5 537.58 762.5 556.48C777.5 575.38 762.5 608.45 740 613.18C717.5 617.9 665 589.55 627.5 584.83C590 580.1 533.75 601.36 515 584.83C496.25 568.29 492.5 499.78 515 485.6Z" fill="var(--red)" fill-opacity=".09" stroke="var(--red)" stroke-dasharray="4 4"></path><path d="M642 534.3l16 16m0 -16l-16 16" stroke="var(--red)" stroke-width="2"></path><polyline points="-812.5,740.75 -520,740.75 -250,740.75 20,740.75 290,740.75" class="route"></polyline><polyline points="200,457.25 121.25,513.95 121.25,599 121.25,740.75" class="route"></polyline><polyline points="200,740.75 155,839.98 200,910.85 290,925.03 335,925.03 380,925.03" class="route"></polyline><path class="route" d="M357.5 995.9C356.75 987.63 350.75 962.12 353 946.29C355.25 930.46 362.75 912.74 371 900.93C379.25 889.12 397.25 879.67 402.5 875.41"></path><rect x="377" y="916.0250000000001" width="6" height="18" fill="var(--blue)"></rect><rect x="13.249999999999984" y="372.20000000000005" width="112.5" height="85.05000000000001" class="rock"></rect><rect x="134.75000000000003" y="563.5625" width="108" height="70.875" class="rock"></rect><circle class="pin" cx="560" cy="967.55" r="10"></circle><text x="560" y="971.55" text-anchor="middle" class="">1</text><circle class="pin" cx="362" cy="925.03" r="10"></circle><text x="362" y="929.03" text-anchor="middle" class="">2</text><circle class="pin" cx="605" cy="797.45" r="10"></circle><text x="605" y="801.45" text-anchor="middle" class="">3</text><circle class="pin" cx="470" cy="358.03" r="10"></circle><text x="470" y="362.03" text-anchor="middle" class="">4</text><circle class="pin" cx="627.5" cy="272.98" r="10"></circle><text x="627.5" y="276.98" text-anchor="middle" class="">5</text><circle class="pin" cx="762.5" cy="584.83" r="10"></circle><text x="762.5" y="588.83" text-anchor="middle" class="">6</text><text x="672.5" y="372.2" text-anchor="middle" class="halo">ONE COVE</text><text x="155" y="315.5" text-anchor="middle" class="halo">Town</text><text x="155" y="868.33" text-anchor="middle" class="halo">Public beach</text><text x="695" y="726.58" text-anchor="middle" class="halo">Open sea →</text><text x="582.5" y="1123.48" text-anchor="middle" class="halo">Outer tip</text><text x="12" y="18" text-anchor="start" class="halo">↑ Inland</text><text x="928" y="18" text-anchor="end" class="halo">East →</text><text x="12" y="1220.35" text-anchor="start" class="halo">Proposed single shoreline · no dividing headland</text></g><text x="18" y="1332.3499755859375">1 · Lighthouse on cliff terrace</text><text x="488" y="1332.3499755859375">2 · Public cave entrance</text><text x="18" y="1358.3499755859375">3 · Tunnel exit onto the hidden beach</text><text x="488" y="1358.3499755859375">4 · One continuous crescent beach</text><text x="18" y="1384.3499755859375">5 · Former narrow inlet, now part of the same cove</text><text x="488" y="1384.3499755859375">6 · Middle spur removed, not smoothed</text><text x="18" y="1418.3499755859375">Green: coast · Blue: upper trail / entrance · Dashes: underground · Red: divider removed</text></svg>